<svg xmlns="http://www.w3.org/2000/svg" version="1.1" xmlns:xlink="http://www.w3.org/1999/xlink" width="512" height="512" x="0" y="0" viewBox="0 0 500 500" style="enable-background:new 0 0 512 512" xml:space="preserve" class=""><g><g fill="#474747"><path d="M453.992 165.375c4.995-4.995 4.995-13.093 0-18.088s-13.093-4.995-18.088 0L246.266 336.925c-4.995 4.995-4.995 13.093 0 18.088s13.093 4.995 18.088 0l76.958-76.958 20.791 20.791-158.572 158.572c-4.995 4.995-4.995 13.093 0 18.088 4.995 4.995 13.093 4.995 18.088 0L405.626 291.5c4.995-4.995 4.995-13.093 0-18.088-4.995-4.995-13.093-4.995-18.088 0l-4.932 4.932-4.932-36.651z" fill="#474747" opacity="1" data-original="#474747" class=""></path><path d="M445.919 164.017a7.495 7.495 0 0 1-6.405-3.587c-30.785-50.323-97.775-91.307-183.792-112.443-4.022-.988-6.482-5.05-5.494-9.073s5.052-6.486 9.073-5.494c89.827 22.072 160.176 65.512 193.009 119.181a7.5 7.5 0 0 1-6.391 11.416zM414.786 197.617a7.498 7.498 0 0 1-6.607-3.94c-19.146-35.481-63.509-65.98-121.714-83.676a7.5 7.5 0 0 1 4.363-14.351c61.959 18.837 109.543 51.971 130.552 90.904a7.5 7.5 0 0 1-6.594 11.063zM224.655 41.264c-.437 0-.878-.039-1.323-.118a547.136 547.136 0 0 0-35.152-5.067 7.5 7.5 0 0 1 1.659-14.909 561.295 561.295 0 0 1 36.121 5.208 7.5 7.5 0 0 1-1.305 14.886zM136.475 32.688l-.158-.001a597.836 597.836 0 0 0-12.227-.126 7.5 7.5 0 0 1 0-15c4.178 0 8.396.043 12.537.129a7.5 7.5 0 0 1-.152 14.998zM264.681 345.254a7.488 7.488 0 0 1-6.102-3.131c-23.112-32.241-83.295-56.392-153.323-61.527a7.5 7.5 0 0 1-6.932-8.028c.303-4.131 3.907-7.236 8.028-6.932 75.425 5.531 138.426 31.491 164.417 67.748a7.5 7.5 0 0 1-6.088 11.87zM81.395 279.572h-.099a399.51 399.51 0 0 0-5.143-.033 7.5 7.5 0 0 1 0-15c1.784 0 3.563.011 5.336.034a7.5 7.5 0 0 1-.094 14.999zM60.501 132.209l6.568 1.92a3.625 3.625 0 0 1 2.463 2.463l1.92 6.568c1.017 3.479 5.945 3.479 6.962 0l1.92-6.568a3.625 3.625 0 0 1 2.463-2.463l6.568-1.92c3.479-1.017 3.479-5.945 0-6.962l-6.568-1.92a3.625 3.625 0 0 1-2.463-2.463l-1.92-6.568c-1.017-3.479-5.945-3.479-6.962 0l-1.92 6.568a3.627 3.627 0 0 1-2.463 2.463l-6.568 1.92c-3.479 1.018-3.479 5.945 0 6.962zM101.21 195.82l-11.568-3.382a6.387 6.387 0 0 1-4.339-4.339l-3.382-11.568c-1.791-6.127-10.471-6.127-12.262 0l-3.381 11.568a6.39 6.39 0 0 1-4.339 4.339L50.37 195.82c-6.127 1.791-6.127 10.471 0 12.262l11.568 3.382a6.387 6.387 0 0 1 4.339 4.339l3.381 11.569c1.791 6.127 10.471 6.127 12.262 0l3.382-11.569a6.39 6.39 0 0 1 4.339-4.339l11.568-3.382c6.128-1.791 6.128-10.471.001-12.262z" fill="#474747" opacity="1" data-original="#474747" class=""></path></g></g></svg>