<svg xmlns="http://www.w3.org/2000/svg" version="1.1" xmlns:xlink="http://www.w3.org/1999/xlink" width="512" height="512" x="0" y="0" viewBox="0 0 512 512" style="enable-background:new 0 0 512 512" xml:space="preserve" class=""><g><path d="M486.4 187.737h-25.6V145.07c-.028-23.552-19.114-42.638-42.667-42.667H297.95l12.954-43.93c3.748-11.491-1.028-24.041-11.469-30.131-8.874-5.049-20.095-2.978-26.581 4.907l-61.44 69.12H128a8.533 8.533 0 0 0 0 17.066h68.267l-30.327 34.133H25.6a8.533 8.533 0 0 0 0 17.066h125.184l-22.741 25.6H93.867a8.533 8.533 0 0 0 0 17.066h19.012l-4.011 4.514a26.454 26.454 0 0 0-3.482 29.653H8.533a8.533 8.533 0 0 0 0 17.066h116.719l52.053 34.133h-57.839a8.533 8.533 0 0 0 0 17.066h70.647l-6.093 25.6H17.067a8.533 8.533 0 0 0 0 17.066h162.901l-8.115 34.133h-60.919a8.533 8.533 0 0 0 0 17.066h56.858l-10.778 45.338c-3.077 11.462 2.144 23.534 12.604 29.141a21.34 21.34 0 0 0 9.583 2.321 21.696 21.696 0 0 0 16.631-8.141l57.762-68.659h164.54c23.552-.028 42.638-19.114 42.667-42.667v-42.66h25.6c14.138 0 25.6-11.462 25.6-25.6v-85.333c-.001-14.138-11.462-25.6-25.601-25.6zM182.801 467.298a4.182 4.182 0 0 1-5.504 1.536 8.533 8.533 0 0 1-3.678-9.95l33.323-140.16a27.296 27.296 0 0 0-.649-14.694c0-.06 0-.128-.051-.179a24.577 24.577 0 0 0-9.651-12.962l-73.711-48.324a8.129 8.129 0 0 1-3.285-5.845 9.585 9.585 0 0 1 2.065-7.535l54.127-60.979.111-.119L285.611 44.582a4.7 4.7 0 0 1 3.456-1.911 4.273 4.273 0 0 1 2.091.606 8.695 8.695 0 0 1 3.413 10.368L254.293 190.05a26.087 26.087 0 0 0 9.916 29.167l73.711 48.734a8.046 8.046 0 0 1 3.26 5.692 9.605 9.605 0 0 1-1.929 7.518zm260.932-100.361c0 14.138-11.462 25.6-25.6 25.6H267.947l84.42-100.429a26.547 26.547 0 0 0 5.751-20.949 25.087 25.087 0 0 0-10.735-17.476l-73.745-48.7a9.388 9.388 0 0 1-2.944-10.103l22.221-75.409h125.218c14.138 0 25.6 11.462 25.6 25.6zm51.2-68.267a8.533 8.533 0 0 1-8.533 8.533h-25.6v-102.4h25.6a8.533 8.533 0 0 1 8.533 8.533z" fill="#000000" opacity="1" data-original="#000000" class=""></path><path d="M76.8 409.604a8.533 8.533 0 0 0 0-17.066H51.2a8.533 8.533 0 0 0 0 17.066zM68.267 102.404a8.533 8.533 0 0 0 0 17.066h25.6a8.533 8.533 0 0 0 0-17.066zM59.733 213.337a8.533 8.533 0 0 0 0-17.066H42.667a8.533 8.533 0 0 0 0 17.066zM85.333 315.737a8.533 8.533 0 0 0 0-17.066H51.2a8.533 8.533 0 0 0 0 17.066z" fill="#000000" opacity="1" data-original="#000000" class=""></path></g></svg>