<svg xmlns="http://www.w3.org/2000/svg" version="1.1" xmlns:xlink="http://www.w3.org/1999/xlink" width="512" height="512" x="0" y="0" viewBox="0 0 65 65" style="enable-background:new 0 0 512 512" xml:space="preserve"><g><path d="M53 18c-.8-.8-2-.8-2.8 0s-.8 2 0 2.8c6.4 6.5 6.4 16.9 0 23.4-.8.8-.8 2 0 2.8s2 .8 2.8 0c8-8 8-21 0-29z" fill="#000000" opacity="1" data-original="#000000"></path><path d="M43.4 24.7c-.8.8-.8 2 0 2.8 2.7 2.7 2.7 7.2 0 9.9-.8.8-.8 2 0 2.8s2 .8 2.8 0c4.3-4.3 4.3-11.2 0-15.5-.7-.7-2-.7-2.8 0zM39.4 16.1l-15-15C23.8.5 23 .4 22.2.7c-.7.3-1.2 1-1.2 1.8v25.2L9.4 16.1c-.8-.8-2-.8-2.8 0s-.8 2 0 2.8l13.6 13.6L6.6 46.1c-.8.8-.8 2 0 2.8s2 .8 2.8 0L21 37.3v25.2c0 .8.5 1.5 1.2 1.8.8.3 1.6.1 2.2-.4l15-15c.8-.8.8-2 0-2.8L25.8 32.5l13.6-13.6c.8-.8.8-2 0-2.8zM25 57.7V37.3l10.2 10.2zm0-30V7.3l10.2 10.2z" fill="#000000" opacity="1" data-original="#000000"></path></g></svg>