<svg xmlns="http://www.w3.org/2000/svg" version="1.1" xmlns:xlink="http://www.w3.org/1999/xlink" width="512" height="512" x="0" y="0" viewBox="0 0 512.242 512.242" style="enable-background:new 0 0 512 512" xml:space="preserve" class=""><g><path d="M274.28 408.762c8.421 62.346 63.75 107.478 126.516 103.2s111.459-56.501 111.342-119.413a118.946 118.946 0 0 0-51.2-97.937V68.282c0-37.703-30.564-68.267-68.267-68.267s-68.267 30.564-68.267 68.267v226.33c-36.926 25.529-56.317 69.687-50.124 114.15zm63.266-102.4a8.533 8.533 0 0 0 3.925-7.185V68.282c0-28.277 22.923-51.2 51.2-51.2s51.2 22.923 51.2 51.2v230.886a8.533 8.533 0 0 0 3.925 7.185c38.34 24.491 55.924 71.341 43.166 115.01-12.757 43.669-52.797 73.685-98.292 73.685s-85.534-30.016-98.292-73.685 4.826-90.519 43.166-115.01v.009z" fill="#000000" opacity="1" data-original="#000000" class=""></path><path d="M377.311 467.847a79.714 79.714 0 0 0 15.215 1.502c37.437.107 69.49-26.809 75.858-63.701 6.368-36.891-14.806-72.995-50.113-85.445V68.282c0-14.138-11.462-25.6-25.6-25.6s-25.6 11.462-25.6 25.6v251.913c-32.508 11.52-53.35 43.297-50.963 77.704 2.387 34.406 27.416 63.002 61.203 69.923zm.427-133.069a8.534 8.534 0 0 0 6.4-8.26V68.282a8.533 8.533 0 0 1 17.066 0v258.236a8.533 8.533 0 0 0 6.4 8.26 59.684 59.684 0 0 1 23.04 103.902 60.28 60.28 0 0 1-50.065 12.416c-27.19-5.643-46.905-29.28-47.577-57.041s17.876-52.324 44.761-59.277z" fill="#000000" opacity="1" data-original="#000000" class=""></path><path d="M383.822 434.362a8.264 8.264 0 0 0 1.638.162 8.532 8.532 0 0 0 1.629-16.904 25.601 25.601 0 0 1-19.567-20.002 8.532 8.532 0 0 0-13.97-5.194 8.535 8.535 0 0 0-2.833 8.164 42.586 42.586 0 0 0 33.103 33.774zM196.456 162.149c-18.851-.031-34.158 15.227-34.189 34.078s15.227 34.158 34.078 34.189h.06c18.851.019 34.149-15.248 34.167-34.099.019-18.851-15.248-34.149-34.099-34.167h-.017zm12.006 46.191a17.01 17.01 0 0 1-12.058 5.009c-9.426 0-17.067-7.641-17.067-17.067s7.641-17.067 17.067-17.067a17.065 17.065 0 0 1 12.023 29.124h.035z" fill="#000000" opacity="1" data-original="#000000" class=""></path><path d="M40.74 261.656a52.259 52.259 0 0 0 17.468 3.2 41.458 41.458 0 0 0 29.867-12.8 88.937 88.937 0 0 1 25.139-18.022 33.087 33.087 0 0 1 23.697-4.446 72.056 72.056 0 0 0 2.159 3.567 131.245 131.245 0 0 0-33.425 74.692 65.972 65.972 0 0 0 18.449 54.554 99.96 99.96 0 0 0 34.645 22.639 92.276 92.276 0 0 0 35.541 7.509 84.208 84.208 0 0 0 37.632-9.054 56.027 56.027 0 0 0 29.918-31.573 43.017 43.017 0 0 0-9.66-47.266 90.817 90.817 0 0 1-17.971-25.165 33.433 33.433 0 0 1-4.497-23.663 70.703 70.703 0 0 0 3.593-2.15 131.205 131.205 0 0 0 63.949 31.838c.516.083 1.039.12 1.562.111a8.533 8.533 0 0 0 1.553-16.921 113.935 113.935 0 0 1-53.931-26.146 67.41 67.41 0 0 0 16.375-61.841 58.875 58.875 0 0 0 24.277-6.878 103.59 103.59 0 0 0 16.845-10.24 8.535 8.535 0 0 0-10.24-13.654 84.846 84.846 0 0 1-14.08 8.533 33.449 33.449 0 0 1-23.637 4.497 62.735 62.735 0 0 0-2.244-3.703 131.415 131.415 0 0 0 33.459-74.624 65.76 65.76 0 0 0-18.526-54.554 99.447 99.447 0 0 0-34.586-22.613 85.182 85.182 0 0 0-73.122 1.57 55.94 55.94 0 0 0-30.029 31.573 43.05 43.05 0 0 0 9.66 47.283 92.121 92.121 0 0 1 18.031 25.122 33.897 33.897 0 0 1 4.48 23.731 65.046 65.046 0 0 0-3.627 2.202 130.805 130.805 0 0 0-74.726-33.434 65.842 65.842 0 0 0-54.468 18.441 99.65 99.65 0 0 0-22.622 34.611 85.123 85.123 0 0 0 1.493 73.199 56.24 56.24 0 0 0 31.599 29.875zm178.133 25.31a108.63 108.63 0 0 0 21.265 29.764 25.942 25.942 0 0 1 5.581 29.508 39.543 39.543 0 0 1-21.333 21.922 67.867 67.867 0 0 1-59.068 1.135 82.028 82.028 0 0 1-28.851-18.671 49.553 49.553 0 0 1-13.824-40.96 114.281 114.281 0 0 1 27.537-63.292 67.848 67.848 0 0 0 46.029 18.176h.128a68.985 68.985 0 0 0 15.625-1.86 58.621 58.621 0 0 0 6.911 24.278zm13.653-54.485a51.413 51.413 0 0 1-13.329 9.566l-.29.137a50.95 50.95 0 0 1-22.605 5.291h-.068a51.15 51.15 0 0 1-45.483-28.211c-.06-.137-.128-.265-.188-.401-12.544-25.142-2.351-55.692 22.775-68.267.196-.085.384-.188.58-.282a50.907 50.907 0 0 1 22.485-5.231 51.198 51.198 0 0 1 45.713 28.416l.119.256c9.728 19.64 5.799 43.301-9.754 58.743zm-58.564-126.908A108.786 108.786 0 0 0 152.629 75.8a25.967 25.967 0 0 1-5.589-29.5 39.519 39.519 0 0 1 21.427-21.922 67.983 67.983 0 0 1 59.059-1.143 81.702 81.702 0 0 1 28.8 18.697 49.314 49.314 0 0 1 13.875 40.96 114.232 114.232 0 0 1-27.588 63.241 67.88 67.88 0 0 0-46.114-18.116h-.094a68.146 68.146 0 0 0-15.607 1.869 59.991 59.991 0 0 0-6.836-24.313zM23.391 165.17a82.022 82.022 0 0 1 18.662-28.86 48.85 48.85 0 0 1 40.96-13.815 113.873 113.873 0 0 1 63.334 27.563 67.361 67.361 0 0 0-16.29 61.764 58.63 58.63 0 0 0-24.303 6.895 105.833 105.833 0 0 0-29.739 21.333 25.84 25.84 0 0 1-29.525 5.53 39.256 39.256 0 0 1-21.999-21.333 67.879 67.879 0 0 1-1.1-59.077z" fill="#000000" opacity="1" data-original="#000000" class=""></path></g></svg>