<svg xmlns="http://www.w3.org/2000/svg" version="1.1" xmlns:xlink="http://www.w3.org/1999/xlink" width="512" height="512" x="0" y="0" viewBox="0 0 160 160" style="enable-background:new 0 0 512 512" xml:space="preserve" class=""><g><path d="M78.157 26.055a3.487 3.487 0 0 0-3.1-1.908H60.852C30.055 24.147 5 49.202 5 80c0 30.797 25.055 55.853 55.853 55.853h14.193l.008.001c.212 0 .421-.026.628-.064a3.586 3.586 0 0 0 .69-.197c.019-.008.039-.012.058-.02a3.555 3.555 0 0 0 .653-.374 3.43 3.43 0 0 0 .386-.318c.028-.026.057-.05.084-.077.139-.142.268-.297.384-.465.027-.04.049-.083.075-.124.054-.086.112-.17.159-.262 17.348-33.782 17.348-74.12 0-107.903zm-14.805 5.092h8.205v97.706h-8.205zM12 80c0-26.099 20.572-47.484 46.353-48.79v97.579C32.572 127.483 12 106.099 12 80zm66.557 34.955V45.044a111.524 111.524 0 0 1 0 69.911zM105.301 52.782l44.9 17.922a3.502 3.502 0 0 0 2.596-6.502l-44.9-17.922a3.5 3.5 0 1 0-2.596 6.502zM152.797 95.567l-44.9-17.921a3.501 3.501 0 0 0-2.596 6.501l44.9 17.922a3.503 3.503 0 0 0 4.549-1.953 3.502 3.502 0 0 0-1.953-4.549zM152.797 126.931l-44.9-17.922a3.5 3.5 0 1 0-2.596 6.502l44.9 17.922a3.503 3.503 0 0 0 4.549-1.953 3.502 3.502 0 0 0-1.953-4.549z" fill="#000000" opacity="1" data-original="#000000" class=""></path></g></svg>