<svg xmlns="http://www.w3.org/2000/svg" version="1.1" xmlns:xlink="http://www.w3.org/1999/xlink" width="512" height="512" x="0" y="0" viewBox="0 0 498.394 498.394" style="enable-background:new 0 0 512 512" xml:space="preserve" class=""><g><path d="M294.874 90.031H157.827C52.759 90.031-.057 169.614 0 249.197s52.986 159.166 159.407 159.166h135.468a15.478 15.478 0 0 0 14.281-9.48c39.219-93.161 41.409-201.011 0-299.373a15.48 15.48 0 0 0-14.282-9.479zM159.407 377.385c-171.786 0-170.808-256.376-1.58-256.376h60.986c31.722 82.03 31.722 174.346 0 256.376h-59.406zm92.449 0c28.994-82.084 29.485-172.9 0-256.376h32.568c31.722 82.03 31.722 174.346 0 256.376h-32.568zM371.634 121.006h89.981c20.467 0 20.489-30.978 0-30.978h-89.981c-20.467 0-20.489 30.978 0 30.978zM393.055 216.793h89.981c20.467 0 20.489-30.978 0-30.978h-89.981c-20.468 0-20.489 30.978 0 30.978zM483.036 281.601h-89.981c-20.467 0-20.489 30.978 0 30.978h89.981c20.467 0 20.489-30.978 0-30.978zM461.615 377.389h-89.981c-20.467 0-20.489 30.978 0 30.978h89.981c20.468 0 20.489-30.978 0-30.978z" fill="#000000" opacity="1" data-original="#000000" class=""></path></g></svg>