<svg xmlns="http://www.w3.org/2000/svg" version="1.1" xmlns:xlink="http://www.w3.org/1999/xlink" width="512" height="512" x="0" y="0" viewBox="0 0 512 512" style="enable-background:new 0 0 512 512" xml:space="preserve"><g><path d="M341.476 338.285c54.483-85.493 47.634-74.827 49.204-77.056C410.516 233.251 421 200.322 421 166 421 74.98 347.139 0 256 0 165.158 0 91 74.832 91 166c0 34.3 10.704 68.091 31.19 96.446l48.332 75.84C118.847 346.227 31 369.892 31 422c0 18.995 12.398 46.065 71.462 67.159C143.704 503.888 198.231 512 256 512c108.025 0 225-30.472 225-90 0-52.117-87.744-75.757-139.524-83.715zm-194.227-92.34a15.57 15.57 0 0 0-.517-.758C129.685 221.735 121 193.941 121 166c0-75.018 60.406-136 135-136 74.439 0 135 61.009 135 136 0 27.986-8.521 54.837-24.646 77.671-1.445 1.906 6.094-9.806-110.354 172.918L147.249 245.945zM256 482c-117.994 0-195-34.683-195-60 0-17.016 39.568-44.995 127.248-55.901l55.102 86.463a14.998 14.998 0 0 0 25.298 0l55.101-86.463C411.431 377.005 451 404.984 451 422c0 25.102-76.313 60-195 60z" fill="#000000" opacity="1" data-original="#000000"></path><path d="M256 91c-41.355 0-75 33.645-75 75s33.645 75 75 75 75-33.645 75-75-33.645-75-75-75zm0 120c-24.813 0-45-20.187-45-45s20.187-45 45-45 45 20.187 45 45-20.187 45-45 45z" fill="#000000" opacity="1" data-original="#000000"></path></g></svg>