<svg xmlns="http://www.w3.org/2000/svg" version="1.1" xmlns:xlink="http://www.w3.org/1999/xlink" width="512" height="512" x="0" y="0" viewBox="0 0 512 512" style="enable-background:new 0 0 512 512" xml:space="preserve"><g><path d="M209.297 106.47c-27.041-19.819-54.785-44.246-74.531-73.865L117.48 6.677c-3.662-5.493-10.488-7.939-16.831-6.035A15 15 0 0 0 90 14.998v235.344c-8.86-5.167-19.023-8.344-30-8.344-33.091 0-60 26.909-60 60s26.909 59.999 60 59.999 60-26.909 60-60V64.249c21.196 26.792 47.71 48.93 71.558 66.42C203.276 139.253 210 152.496 210 166.997c0 24.814-20.186 45-45 45-8.291 0-15 6.709-15 15s6.709 15 15 15c41.353 0 75-33.647 75-75 0-23.804-11.47-46.421-30.703-60.527zM492.884 122.569l-212 60A15.013 15.013 0 0 0 270 196.998v203.344c-8.86-5.167-19.023-8.344-30-8.344-33.091 0-60 26.909-60 60s26.909 60 60 60 60-26.909 60-60v-183.68l182-51.429v123.453c-8.86-5.167-19.023-8.344-30-8.344-33.091 0-60 26.909-60 60s26.909 60 60 60 60-26.909 60-60v-255c0-9.921-9.49-17.148-19.116-14.429z" fill="#000000" opacity="1" data-original="#000000"></path></g></svg>