<svg xmlns="http://www.w3.org/2000/svg" version="1.1" xmlns:xlink="http://www.w3.org/1999/xlink" width="512" height="512" x="0" y="0" viewBox="0 0 512 512" style="enable-background:new 0 0 512 512" xml:space="preserve"><g><path d="M442.332 69.666C397.407 24.741 337.677 0 274.144 0c-63.295 0-124.337 25.538-168.809 70.316-7.086-3.715-14.379-5.561-21.939-5.561-22.742 0-41.198 16.693-57.481 31.421-2.86 2.587-5.563 5.031-8.192 7.294-9.856 8.297-15.854 22.284-17.346 40.453-2.214 26.964 5.452 62.626 21.584 100.415 18.184 42.595 46.663 87.105 82.319 128.673C185.62 469.024 272.641 512 322.798 512c14.542 0 26.102-3.502 34.357-10.41l.12-.102c2.778-2.4 5.743-4.832 8.883-7.407 18.482-15.158 39.431-32.339 40.362-57.477.015-.391.018-.783.023-1.174 31.518-21.132 57.735-49.706 76.031-82.983 19.248-35.012 29.423-74.637 29.423-114.591.001-63.534-24.74-123.265-69.665-168.19zM83.396 84.757c11.945 0 24.366 9.258 36.921 27.52 16.662 24.223 23.368 41.954 20.499 54.205-1.003 4.283-3.195 8.161-6.252 11.932-15.035-28.822-39.829-67.967-59.742-92.259 2.861-.896 5.725-1.398 8.574-1.398zm270.079 393.859c-3.217 2.638-6.257 5.131-9.207 7.678-4.5 3.732-11.922 5.705-21.47 5.705-44.068 0-126.472-41.281-203.297-131.963-34.385-40.085-61.753-82.808-79.146-123.55-14.878-34.852-21.997-67.144-20.044-90.925 1.032-12.573 4.695-22.093 10.313-26.807l.096-.081c2.832-2.437 5.639-4.976 8.61-7.663 5.629-5.091 11.569-10.462 17.664-15.011 20.309 23.918 47.971 67.899 62.436 96.748a1106.96 1106.96 0 0 1-4.047 3.325c-1.34 1.097-2.697 2.208-4.068 3.34l-.191.163c-13.007 11.305-12.141 30.645 2.575 57.482 9.691 17.673 25.457 39.272 48.223 66.055 44.736 52.247 75.801 76.581 97.763 76.581 6.667 0 12.741-2.221 17.531-6.395.188-.162.365-.32.553-.482 26.973 15.864 66.532 47.857 88.994 74.547-4.226 3.819-8.778 7.554-13.288 11.253zm26.903-26.118c-22.834-26.478-59.125-56.095-86.566-73.324 7.424-5.736 14.373-9.542 22.175-9.542 12.348 0 28.385 9.329 49.024 28.516 14.689 14.001 21.931 26.691 21.521 37.715-.217 5.853-2.535 11.363-6.154 16.635zm21.559-38.207c-4.451-9.997-12.139-20.158-23.174-30.667l-.087-.081c-24.876-23.137-44.797-33.912-62.69-33.912-19.268 0-32.807 11.866-47.142 24.429-1.539 1.349-3.102 2.72-4.733 4.127-1.21 1.054-2.534 1.504-4.427 1.504-8.584 0-30.725-9.04-82.546-69.56-21.854-25.712-36.869-46.218-45.901-62.69-8.988-16.392-11.621-28.602-7.061-32.709 1.305-1.078 2.599-2.136 3.875-3.181 3.532-2.891 7.015-5.744 10.324-8.657.071-.063.145-.122.214-.186 10.157-8.972 18.63-18.548 21.701-31.666 4.342-18.546-2.904-40.166-23.494-70.098-5.017-7.298-10.1-13.463-15.274-18.531C162.075 42.631 217.114 20 274.144 20c120.125 0 217.854 97.729 217.854 217.855 0 70.517-33.428 135.517-90.061 176.436z" fill="#000000" opacity="1" data-original="#000000"></path><path d="M219.782 52.551c-1.827-5.212-7.536-7.958-12.745-6.129a203.016 203.016 0 0 0-42.794 20.928c-4.642 2.992-5.979 9.181-2.987 13.823a9.99 9.99 0 0 0 8.415 4.584 9.957 9.957 0 0 0 5.408-1.596 183.027 183.027 0 0 1 38.573-18.864c5.212-1.828 7.957-7.534 6.13-12.746zM248.724 46.421c-1.01-5.431-6.236-9.012-11.659-8.004l-.709.133c-5.425 1.037-8.982 6.275-7.945 11.699.914 4.792 5.107 8.126 9.811 8.126.622 0 1.254-.059 1.888-.18l.609-.115c5.43-1.009 9.014-6.229 8.005-11.659zM316.364 165.501c-17.501 0-31.738 14.238-31.738 31.738v57.772c0 17.5 14.238 31.738 31.739 31.738s31.738-14.238 31.738-31.738v-57.772c0-17.5-14.239-31.738-31.739-31.738zm11.739 89.51c0 6.473-5.266 11.738-11.738 11.738h-.001c-6.473 0-11.738-5.266-11.738-11.738v-57.772c0-6.473 5.267-11.738 11.739-11.738 6.473 0 11.738 5.266 11.738 11.738v57.772zM401.864 216.125c-8.065 0-14.627-6.562-14.627-14.627s6.561-14.626 14.626-14.626a14.663 14.663 0 0 1 12.666 7.313c2.761 4.782 8.874 6.422 13.66 3.661 4.783-2.761 6.423-8.877 3.662-13.66-6.165-10.68-17.656-17.314-29.988-17.314-19.093 0-34.626 15.533-34.626 34.626s15.533 34.627 34.626 34.627h.001c8.065 0 14.626 6.561 14.626 14.626s-6.561 14.627-14.626 14.627a14.67 14.67 0 0 1-12.668-7.314c-2.761-4.782-8.877-6.422-13.66-3.66-4.783 2.761-6.422 8.877-3.66 13.66 6.166 10.68 17.656 17.314 29.988 17.314 19.093 0 34.626-15.534 34.626-34.627 0-19.093-15.533-34.626-34.626-34.626zM230.864 216.125c-8.065 0-14.627-6.562-14.627-14.627s6.562-14.626 14.626-14.626a14.663 14.663 0 0 1 12.666 7.313c2.761 4.782 8.875 6.422 13.66 3.661 4.783-2.761 6.423-8.877 3.662-13.66-6.165-10.68-17.656-17.314-29.988-17.314-19.093 0-34.626 15.533-34.626 34.626s15.533 34.627 34.626 34.627h.001c8.064 0 14.626 6.561 14.626 14.626s-6.561 14.627-14.626 14.627a14.67 14.67 0 0 1-12.668-7.314c-2.761-4.782-8.877-6.422-13.66-3.66-4.783 2.761-6.422 8.877-3.66 13.66 6.166 10.68 17.656 17.314 29.988 17.314 19.093 0 34.626-15.534 34.626-34.627 0-19.093-15.533-34.626-34.626-34.626z" fill="#000000" opacity="1" data-original="#000000"></path></g></svg>