<svg xmlns="http://www.w3.org/2000/svg" version="1.1" xmlns:xlink="http://www.w3.org/1999/xlink" width="512" height="512" x="0" y="0" viewBox="0 0 480 480" style="enable-background:new 0 0 512 512" xml:space="preserve" class=""><g><path d="M240 0C107.452 0 0 107.452 0 240s107.452 240 240 240 240-107.452 240-240C479.85 107.514 372.486.15 240 0zm215.328 301.552-15.032-4.888-4.952 15.2 15.096 4.904a223.941 223.941 0 0 1-24.688 48.272l-12.8-9.28-9.408 12.944 12.704 9.232a226.173 226.173 0 0 1-38.288 38.344l-9.232-12.704-12.944 9.408 9.28 12.8A223.877 223.877 0 0 1 316.8 450.44l-4.904-15.096-15.2 4.952 4.888 15.032A222.808 222.808 0 0 1 248 463.8V448h-16v15.8a222.755 222.755 0 0 1-53.552-8.472l4.888-15.032-15.2-4.952-4.936 15.096a223.941 223.941 0 0 1-48.272-24.688l9.28-12.8-12.944-9.408-9.232 12.704a226.147 226.147 0 0 1-38.32-38.32l12.704-9.232-9.408-12.944-12.8 9.28A223.872 223.872 0 0 1 29.6 316.8l15.096-4.904-4.952-15.2-15.032 4.888A222.794 222.794 0 0 1 16.2 248H32v-16H16.2a222.755 222.755 0 0 1 8.472-53.552l15.032 4.888 4.952-15.2L29.6 163.2a223.941 223.941 0 0 1 24.688-48.272l12.8 9.28 9.408-12.944-12.776-9.224a226.147 226.147 0 0 1 38.32-38.32l9.232 12.704 12.944-9.408-9.28-12.8A223.865 223.865 0 0 1 163.2 29.6l4.904 15.096 15.2-4.952-4.888-15.032A222.794 222.794 0 0 1 232 16.2V32h16V16.2a222.755 222.755 0 0 1 53.552 8.472l-4.888 15.032 15.2 4.952L316.8 29.6a223.941 223.941 0 0 1 48.272 24.688l-9.28 12.8 12.944 9.408 9.232-12.704a226.147 226.147 0 0 1 38.32 38.32l-12.704 9.232 9.408 12.944 12.8-9.28A223.885 223.885 0 0 1 450.44 163.2l-15.096 4.904 4.952 15.2 15.032-4.888A222.808 222.808 0 0 1 463.8 232H448v16h15.8a222.755 222.755 0 0 1-8.472 53.552z" fill="#000000" opacity="1" data-original="#000000" class=""></path><path d="M240 64c-97.202 0-176 78.798-176 176s78.798 176 176 176 176-78.798 176-176c-.11-97.156-78.844-175.89-176-176zm0 336c-88.366 0-160-71.634-160-160S151.634 80 240 80s160 71.634 160 160c-.101 88.323-71.676 159.899-160 160z" fill="#000000" opacity="1" data-original="#000000" class=""></path><path d="M240 104c-75.111 0-136 60.889-136 136s60.889 136 136 136 136-60.889 136-136c-.084-75.076-60.924-135.916-136-136zm102.872 74.536a118.956 118.956 0 0 1 16.584 50.744l-50.104-4.048A7.999 7.999 0 0 1 304.8 211.2l38.072-32.664zm-76.16-55.432-19.328 46.4a8 8 0 0 1-14.768 0l-19.328-46.4a116.48 116.48 0 0 1 53.424 0zm-129.584 55.43L175.2 211.2a8 8 0 0 1-4.56 14.048l-50.104 4.048a118.96 118.96 0 0 1 16.592-50.762zm67.368 122.858-11.616 48.944a120.555 120.555 0 0 1-43.128-31.504h-.024l42.816-26.12a8 8 0 0 1 11.952 8.68zm82.624 48.944h-.024l-11.64-48.944a8 8 0 0 1 11.952-8.68l42.816 26.12a120.557 120.557 0 0 1-43.104 31.504zm8.64-71.288c-11.315-6.904-26.084-3.329-32.988 7.986a24.001 24.001 0 0 0-2.86 18.062l12 50.464a116.96 116.96 0 0 1-63.84 0h-.016l12-50.464c3.066-12.895-4.902-25.835-17.798-28.901a23.999 23.999 0 0 0-18.05 2.861l-44.272 27.024a119.198 119.198 0 0 1-19.664-60.728l51.664-4.176c13.21-1.083 23.041-12.671 21.958-25.881a24.003 24.003 0 0 0-8.294-16.255l-39.36-33.76a120.399 120.399 0 0 1 51.64-37.512l19.936 47.864c5.095 12.236 19.145 18.026 31.382 12.93a24 24 0 0 0 12.93-12.93l19.944-47.864a120.455 120.455 0 0 1 51.64 37.512L294.4 199.04c-10.06 8.631-11.218 23.783-2.587 33.842a24.003 24.003 0 0 0 16.275 8.294l51.664 4.176a119.198 119.198 0 0 1-19.664 60.728l-44.328-27.032z" fill="#000000" opacity="1" data-original="#000000" class=""></path><path d="M240 208c-17.673 0-32 14.327-32 32s14.327 32 32 32c17.673 0 32-14.327 32-32s-14.327-32-32-32zm0 48c-8.837 0-16-7.163-16-16s7.163-16 16-16 16 7.163 16 16-7.163 16-16 16z" fill="#000000" opacity="1" data-original="#000000" class=""></path></g></svg>