<svg xmlns="http://www.w3.org/2000/svg" version="1.1" xmlns:xlink="http://www.w3.org/1999/xlink" width="512" height="512" x="0" y="0" viewBox="0 0 368 368" style="enable-background:new 0 0 512 512" xml:space="preserve"><g><path d="M296 48c-39.704 0-72 32.304-72 72 0 4.416 3.576 8 8 8s8-3.584 8-8c0-30.88 25.128-56 56-56s56 25.12 56 56-25.128 56-56 56H8c-4.416 0-8 3.584-8 8s3.584 8 8 8h288c39.704 0 72-32.304 72-72s-32.296-72-72-72z" fill="#000000" opacity="1" data-original="#000000"></path><path d="M144 32c-30.88 0-56 25.12-56 56 0 4.416 3.584 8 8 8s8-3.584 8-8c0-22.056 17.944-40 40-40s40 17.944 40 40-17.944 40-40 40H8c-4.416 0-8 3.584-8 8s3.584 8 8 8h136c30.88 0 56-25.12 56-56s-25.12-56-56-56zM280 224H8c-4.416 0-8 3.584-8 8s3.584 8 8 8h272c22.056 0 40 17.944 40 40s-17.944 40-40 40-40-17.944-40-40c0-4.416-3.576-8-8-8s-8 3.584-8 8c0 30.88 25.128 56 56 56s56-25.12 56-56-25.128-56-56-56z" fill="#000000" opacity="1" data-original="#000000"></path></g></svg>